<?xml version="1.0" encoding="utf-8"?>
<!-- Generator: Adobe Illustrator 28.2.0, SVG Export Plug-In . SVG Version: 6.00 Build 0)  -->
<svg version="1.1" id="Layer_1" xmlns="http://www.w3.org/2000/svg" xmlns:xlink="http://www.w3.org/1999/xlink" x="0px" y="0px"
	 viewBox="0 0 48 48" style="enable-background:new 0 0 48 48;" xml:space="preserve">
<style type="text/css">
	.st0{fill:#FFFFFF;}
</style>
<g>
	<path class="st0" d="M29.25,12.64h1.11l0.89,13.77h-1.11c-0.55-3.33-2.39-4.88-5.72-4.88h-1.33v14.99c0,1.94,0.89,2.78,3,2.78
		c6.22,0,11.66-4.39,12.93-10.44h1.11l-2.22,15.21c-0.61-0.89-2.39-0.89-3.11-0.89H10.65l0.28-1.94c2.44,0,3.27-0.94,3.27-3.22V9.48
		c0-2.28-0.83-3.22-3.27-3.22l-0.28-1.94h23.59c0.72,0,2.5,0,3.11-0.89l2.22,15.21h-1.11C37.19,12.58,31.97,8.2,26.08,8.2
		c-2.11,0-3,0.83-3,2.78v6.11h1.33C27.42,17.08,28.97,15.69,29.25,12.64z"/>
</g>
</svg>
